<svg version="1" xmlns="http://www.w3.org/2000/svg" width="682.667" height="682.667" viewBox="0 0 512.000000 512.000000"><path d="M119 86.5c-15.6 3.2-28.3 15.5-32.4 31.4-1 4-1.3 32.1-1.1 139.8.1 146.4-.2 136 5.4 147.1 4.1 8 15.4 17.4 23.7 19.7 1.6.5 3.6 1 4.4 1.3.8.3 62 .6 136 .7 114.5.2 135.2 0 139.5-1.2 15.9-4.6 26.8-15.7 30.9-31.5 1.8-7.2 1.9-266.1.1-274.8-3.1-14.5-13.5-26.3-28.2-31.6-4.5-1.7-13.1-1.8-138.8-1.9-97.6-.1-135.5.1-139.5 1zM393 109c5.2 2.6 8.4 6 10.7 11 1.3 3.1 1.5 18.2 1.6 134.1 0 71.8-.3 132.3-.7 134.5-.8 3.9-4.3 9.4-8.1 12.6-5 4.1-5.2 4.1-141.9 4.1-121 0-131.4-.1-134.6-1.7-1.9-.9-4.2-2.2-5-2.9-2.2-1.7-7.4-8.7-6.5-8.7.4 0 .2-.7-.5-1.5-1.1-1.3-1.3-27.8-1.3-134.4V123.3l2.4-4.8c3.3-6.6 9.4-10.7 17.3-11.4 3.4-.3 63.7-.6 134.1-.5l128 .1 4.5 2.3z"/><path d="M140.5 170.8c-1.8.2-2 1-1.9 6.7.1 4.1-.3 6.5-1 6.5-.8 0-.8.2 0 .8.8.5 1.1 23.3 1 78.5-.1 51.1.2 77.7.9 77.8.6 0 10.1.1 21.3.2 17.3.2 20.2 0 20.3-1.3 0-.8.2-39.2.2-85.3.2-73.8 0-83.7-1.3-83.8-4.3-.3-37.8-.4-39.5-.1zM266.9 213.9c0 .3-.1 29.1-.2 63.9l-.2 63.2 2.5.1c10.8.5 37.8.3 39-.2 1.3-.6 1.5-8.7 1.4-64.1l-.1-63.3-21.1-.1c-11.7-.1-21.2.2-21.3.5zM202.9 256.7c0 .5-.1 5.7-.2 11.8 0 6.7-.5 11.3-1.1 11.7-.8.6-.8.8 0 .8.7 0 1 8.7 1 28.7-.1 15.9 0 29.5.2 30.3.3 1.3 3.2 1.5 19.5 1.3 10.6 0 20.1-.2 21.2-.2 2-.1 2-.8 2-42.6V256h-21.2c-11.7 0-21.3.3-21.4.7zM344 297.6c0 .7-2.4 1.1-6.5 1-5.1-.1-6.5.2-6.6 1.4-.5 7.6-.3 38.8.2 40 .6 1.3 3.8 1.5 20.6 1.4 11 0 20.4-.3 20.9-.6.7-.5 1.1-27.9.5-40.3-.1-1.9-.7-2-13.8-1.8-9.6.1-14-.2-14.5-1s-.8-.8-.8-.1z"/></svg>